<svg xmlns="http://www.w3.org/2000/svg" xmlns:xlink="http://www.w3.org/1999/xlink" contentStyleType="text/css" data-diagram-type="DESCRIPTION" height="311px" preserveAspectRatio="none" style="width:1019px;height:311px;background:#FFFFFF;" version="1.1" viewBox="0 0 1019 311" width="1019px" zoomAndPan="magnify"><defs/><g><!--entity P--><g class="entity" data-entity="P" data-source-line="1" data-uid="ent0002" id="entity_P"><ellipse cx="429.3279" cy="14" fill="#F1F1F1" rx="8" ry="8" style="stroke:#181818;stroke-width:0.5;"/><path d="M429.3279,22 L429.3279,49 M416.3279,30 L442.3279,30 M429.3279,49 L416.3279,64 M429.3279,49 L442.3279,64" fill="none" style="stroke:#181818;stroke-width:0.5;"/><text fill="#000000" font-family="sans-serif" font-size="14" lengthAdjust="spacing" textLength="74.1357" x="392.26" y="78.4951">Professeur</text></g><g class="entity" data-entity="UC_auth" data-source-line="2" data-uid="ent0003" id="entity_UC_auth"><ellipse cx="429.317" cy="288.9414" fill="#F1F1F1" rx="70.657" ry="16.5314" style="stroke:#181818;stroke-width:0.5;"/><text fill="#000000" font-family="sans-serif" font-size="14" lengthAdjust="spacing" textLength="94.6025" x="379.0157" y="292.689">S'authentifier</text></g><g class="entity" data-entity="UC8" data-source-line="3" data-uid="ent0004" id="entity_UC8"><ellipse cx="75.3238" cy="169.1048" fill="#F1F1F1" rx="69.3238" ry="16.2648" style="stroke:#181818;stroke-width:0.5;"/><text fill="#000000" font-family="sans-serif" font-size="14" lengthAdjust="spacing" textLength="90.9863" x="26.8306" y="172.8523">Publier cours</text></g><g class="entity" data-entity="UC9" data-source-line="4" data-uid="ent0005" id="entity_UC9"><ellipse cx="246.3221" cy="169.1044" fill="#F1F1F1" rx="66.8721" ry="15.7744" style="stroke:#181818;stroke-width:0.5;"/><text fill="#000000" font-family="sans-serif" font-size="14" lengthAdjust="spacing" textLength="84.1641" x="201.24" y="172.852">Cr&#233;er projet</text></g><g class="entity" data-entity="UC10" data-source-line="5" data-uid="ent0006" id="entity_UC10"><ellipse cx="429.3155" cy="169.0991" fill="#F1F1F1" rx="81.2455" ry="18.6491" style="stroke:#181818;stroke-width:0.5;"/><text fill="#000000" font-family="sans-serif" font-size="14" lengthAdjust="spacing" textLength="121.5225" x="367.3477" y="172.3412">Noter soumission</text></g><g class="entity" data-entity="UC11" data-source-line="6" data-uid="ent0007" id="entity_UC11"><ellipse cx="642.3207" cy="169.0961" fill="#F1F1F1" rx="97.0807" ry="21.8161" style="stroke:#181818;stroke-width:0.5;"/><text fill="#000000" font-family="sans-serif" font-size="14" lengthAdjust="spacing" textLength="157.6025" x="563.5194" y="171.9428">Consulter notifications</text></g><g class="entity" data-entity="UC12" data-source-line="7" data-uid="ent0008" id="entity_UC12"><ellipse cx="894.316" cy="169.0952" fill="#F1F1F1" rx="119.526" ry="26.3052" style="stroke:#181818;stroke-width:0.5;"/><text fill="#000000" font-family="sans-serif" font-size="14" lengthAdjust="spacing" textLength="206.3428" x="791.1447" y="171.9419">T&#233;l&#233;charger emploi du temps</text></g><!--link UC8 to UC_auth--><g class="link" data-entity-1="UC8" data-entity-2="UC_auth" data-source-line="9" data-uid="lnk9" id="link_UC8_UC_auth"><path d="M107.16,183.88 C143.54,199.33 205.04,224.54 259.32,242.41 C299.81,255.74 340.8247,266.6228 375.0747,275.0728" fill="none" id="UC8-to-UC_auth" style="stroke:#181818;stroke-width:1;stroke-dasharray:7.0,7.0;"/><polygon fill="#181818" points="380.9,276.51,373.1201,270.4707,376.0456,275.3123,371.2039,278.2378,380.9,276.51" style="stroke:#181818;stroke-width:1;"/><text fill="#000000" font-family="sans-serif" font-size="13" lengthAdjust="spacing" textLength="63.0068" x="260.32" y="238.4769">&#171;include&#187;</text></g><!--link UC9 to UC_auth--><g class="link" data-entity-1="UC9" data-entity-2="UC_auth" data-source-line="10" data-uid="lnk10" id="link_UC9_UC_auth"><path d="M267.72,184.39 C289.82,199.08 325.34,222.56 356.32,242.41 C372.55,252.8 385.8578,261.1229 400.1278,269.9529" fill="none" id="UC9-to-UC_auth" style="stroke:#181818;stroke-width:1;stroke-dasharray:7.0,7.0;"/><polygon fill="#181818" points="405.23,273.11,399.6815,264.9728,400.9782,270.479,395.4719,271.7758,405.23,273.11" style="stroke:#181818;stroke-width:1;"/><text fill="#000000" font-family="sans-serif" font-size="13" lengthAdjust="spacing" textLength="63.0068" x="357.32" y="238.4769">&#171;include&#187;</text></g><!--link UC10 to UC_auth--><g class="link" data-entity-1="UC10" data-entity-2="UC_auth" data-source-line="11" data-uid="lnk11" id="link_UC10_UC_auth"><path d="M429.32,188 C429.32,210.92 429.32,244.28 429.32,266.14" fill="none" id="UC10-to-UC_auth" style="stroke:#181818;stroke-width:1;stroke-dasharray:7.0,7.0;"/><polygon fill="#181818" points="429.32,272.14,433.32,263.14,429.32,267.14,425.32,263.14,429.32,272.14" style="stroke:#181818;stroke-width:1;"/><text fill="#000000" font-family="sans-serif" font-size="13" lengthAdjust="spacing" textLength="63.0068" x="430.32" y="238.4769">&#171;include&#187;</text></g><!--link UC11 to UC_auth--><g class="link" data-entity-1="UC11" data-entity-2="UC_auth" data-source-line="12" data-uid="lnk12" id="link_UC11_UC_auth"><path d="M606.67,189.83 C564.16,213.35 499.3203,249.2157 461.2303,270.2857" fill="none" id="UC11-to-UC_auth" style="stroke:#181818;stroke-width:1;stroke-dasharray:7.0,7.0;"/><polygon fill="#181818" points="455.98,273.19,465.7916,272.3338,460.3552,270.7698,461.9192,265.3334,455.98,273.19" style="stroke:#181818;stroke-width:1;"/><text fill="#000000" font-family="sans-serif" font-size="13" lengthAdjust="spacing" textLength="63.0068" x="543.32" y="238.4769">&#171;include&#187;</text></g><!--link UC12 to UC_auth--><g class="link" data-entity-1="UC12" data-entity-2="UC_auth" data-source-line="13" data-uid="lnk13" id="link_UC12_UC_auth"><path d="M818.9,189.94 C762.81,204.63 684.35,225.02 615.32,242.41 C568.42,254.23 520.5816,265.9086 482.9816,275.0086" fill="none" id="UC12-to-UC_auth" style="stroke:#181818;stroke-width:1;stroke-dasharray:7.0,7.0;"/><polygon fill="#181818" points="477.15,276.42,486.8384,278.1907,482.0097,275.2438,484.9565,270.4152,477.15,276.42" style="stroke:#181818;stroke-width:1;"/><text fill="#000000" font-family="sans-serif" font-size="13" lengthAdjust="spacing" textLength="63.0068" x="678.32" y="238.4769">&#171;include&#187;</text></g><!--link P to UC8--><g class="link" data-entity-1="P" data-entity-2="UC8" data-source-line="15" data-uid="lnk14" id="link_P_UC8"><path d="M391.77,57.74 C323.71,81.48 186.3953,129.3641 118.4153,153.0741" fill="none" id="P-to-UC8" style="stroke:#181818;stroke-width:1;"/><polygon fill="#181818" points="112.75,155.05,122.5652,155.863,117.4711,153.4034,119.9307,148.3092,112.75,155.05" style="stroke:#181818;stroke-width:1;"/></g><!--link P to UC9--><g class="link" data-entity-1="P" data-entity-2="UC9" data-source-line="16" data-uid="lnk15" id="link_P_UC9"><path d="M391.85,69.93 C354.31,95.25 302.8436,129.9739 272.4636,150.4739" fill="none" id="P-to-UC9" style="stroke:#181818;stroke-width:1;"/><polygon fill="#181818" points="267.49,153.83,277.1878,152.1116,271.6347,151.0332,272.713,145.4801,267.49,153.83" style="stroke:#181818;stroke-width:1;"/></g><!--link P to UC10--><g class="link" data-entity-1="P" data-entity-2="UC10" data-source-line="17" data-uid="lnk16" id="link_P_UC10"><path d="M429.32,82.02 C429.32,104.59 429.32,126.33 429.32,144.11" fill="none" id="P-to-UC10" style="stroke:#181818;stroke-width:1;"/><polygon fill="#181818" points="429.32,150.11,433.32,141.11,429.32,145.11,425.32,141.11,429.32,150.11" style="stroke:#181818;stroke-width:1;"/></g><!--link P to UC11--><g class="link" data-entity-1="P" data-entity-2="UC11" data-source-line="18" data-uid="lnk17" id="link_P_UC11"><path d="M466.43,66.15 C506.35,89.29 564.1488,122.7914 602.9188,145.2614" fill="none" id="P-to-UC11" style="stroke:#181818;stroke-width:1;"/><polygon fill="#181818" points="608.11,148.27,602.329,140.2963,603.784,145.7628,598.3175,147.2178,608.11,148.27" style="stroke:#181818;stroke-width:1;"/></g><!--link P to UC12--><g class="link" data-entity-1="P" data-entity-2="UC12" data-source-line="19" data-uid="lnk18" id="link_P_UC12"><path d="M466.59,54.54 C542.99,74.83 712.8509,119.9205 813.6909,146.6905" fill="none" id="P-to-UC12" style="stroke:#181818;stroke-width:1;"/><polygon fill="#181818" points="819.49,148.23,811.8176,142.0547,814.6574,146.9471,809.765,149.7868,819.49,148.23" style="stroke:#181818;stroke-width:1;"/></g><!--SRC=[VP0nRiCm301tluB8qYb1vAaE0Y_P2mDjvq9Hc4Q58WQY-2Y_mnyh7TXM9cy7tK6YQ5sc15sYApAZ9B0CNIMCpZB2vlFDIhvXpFxgCMr6-ttw6SzAqyavg0H7adXAtei-fQ5N-qZqXtdIJT4VbDKooTqpUufJOVOlDr1a2MCMQHp4sQpX_9GnfVmQ-Z3qxcRJhzPuVmJoS178YajVLvKE2BjTE_y53d0y-kY2NB1jrJQhrkpNjLdNzOgkEjXks-S2PseMqfqiQ0hM_m00]--></g></svg>