<svg xmlns="http://www.w3.org/2000/svg" xmlns:xlink="http://www.w3.org/1999/xlink" contentStyleType="text/css" data-diagram-type="DESCRIPTION" height="335px" preserveAspectRatio="none" style="width:953px;height:335px;background:#FFFFFF;" version="1.1" viewBox="0 0 953 335" width="953px" zoomAndPan="magnify"><defs/><g><!--entity A--><g class="entity" data-entity="A" data-source-line="1" data-uid="ent0002" id="entity_A"><ellipse cx="504.4321" cy="14" fill="#F1F1F1" rx="8" ry="8" style="stroke:#181818;stroke-width:0.5;"/><path d="M504.4321,22 L504.4321,49 M491.4321,30 L517.4321,30 M504.4321,49 L491.4321,64 M504.4321,49 L517.4321,64" fill="none" style="stroke:#181818;stroke-width:0.5;"/><text fill="#000000" font-family="sans-serif" font-size="14" lengthAdjust="spacing" textLength="44.8643" x="482" y="78.4951">Admin</text></g><g class="entity" data-entity="UC_auth" data-source-line="2" data-uid="ent0003" id="entity_UC_auth"><ellipse cx="538.427" cy="312.6314" fill="#F1F1F1" rx="70.657" ry="16.5314" style="stroke:#181818;stroke-width:0.5;"/><text fill="#000000" font-family="sans-serif" font-size="14" lengthAdjust="spacing" textLength="94.6025" x="488.1257" y="316.379">S'authentifier</text></g><g class="entity" data-entity="UC1" data-source-line="3" data-uid="ent0004" id="entity_UC1"><ellipse cx="87.4316" cy="180.9463" fill="#F1F1F1" rx="81.4316" ry="18.6863" style="stroke:#181818;stroke-width:0.5;"/><text fill="#000000" font-family="sans-serif" font-size="14" lengthAdjust="spacing" textLength="121.9668" x="25.3086" y="184.1677">G&#233;rer utilisateurs</text></g><g class="entity" data-entity="UC2" data-source-line="4" data-uid="ent0005" id="entity_UC2"><ellipse cx="273.4263" cy="180.9493" fill="#F1F1F1" rx="69.2963" ry="16.2593" style="stroke:#181818;stroke-width:0.5;"/><text fill="#000000" font-family="sans-serif" font-size="14" lengthAdjust="spacing" textLength="90.9111" x="224.9707" y="184.6968">G&#233;rer fili&#232;res</text></g><g class="entity" data-entity="UC3" data-source-line="5" data-uid="ent0006" id="entity_UC3"><ellipse cx="450.4324" cy="180.9545" fill="#F1F1F1" rx="72.4724" ry="16.8945" style="stroke:#181818;stroke-width:0.5;"/><text fill="#000000" font-family="sans-serif" font-size="14" lengthAdjust="spacing" textLength="99.4355" x="397.7146" y="184.702">G&#233;rer niveaux</text></g><g class="entity" data-entity="UC4" data-source-line="6" data-uid="ent0007" id="entity_UC4"><ellipse cx="628.4326" cy="180.9485" fill="#F1F1F1" rx="70.6926" ry="16.5385" style="stroke:#181818;stroke-width:0.5;"/><text fill="#000000" font-family="sans-serif" font-size="14" lengthAdjust="spacing" textLength="94.6982" x="578.0835" y="184.6961">G&#233;rer classes</text></g><g class="entity" data-entity="UC5" data-source-line="7" data-uid="ent0008" id="entity_UC5"><ellipse cx="808.4313" cy="180.9483" fill="#F1F1F1" rx="74.1413" ry="17.2283" style="stroke:#181818;stroke-width:0.5;"/><text fill="#000000" font-family="sans-serif" font-size="14" lengthAdjust="spacing" textLength="103.7969" x="753.5329" y="184.6958">G&#233;rer modules</text></g><!--entity UC6--><g class="entity" data-entity="UC6" data-source-line="16" data-uid="ent0014" id="entity_UC6"><ellipse cx="932.4348" cy="151.3" fill="#F1F1F1" rx="8" ry="8" style="stroke:#181818;stroke-width:0.5;"/><path d="M932.4348,159.3 L932.4348,186.3 M919.4348,167.3 L945.4348,167.3 M932.4348,186.3 L919.4348,201.3 M932.4348,186.3 L945.4348,201.3" fill="none" style="stroke:#181818;stroke-width:0.5;"/><text fill="#000000" font-family="sans-serif" font-size="14" lengthAdjust="spacing" textLength="28.9297" x="917.97" y="215.7951">UC6</text></g><!--link UC1 to UC_auth--><g class="link" data-entity-1="UC1" data-entity-2="UC_auth" data-source-line="11" data-uid="lnk9" id="link_UC1_UC_auth"><path d="M128.36,197.35 C146.19,204.05 167.34,211.98 186.43,219.1 C242.83,240.11 255.54,249.63 313.43,266.1 C369.78,282.12 429.6961,293.747 475.5261,301.597" fill="none" id="UC1-to-UC_auth" style="stroke:#181818;stroke-width:1;stroke-dasharray:7.0,7.0;"/><polygon fill="#181818" points="481.44,302.61,473.2445,297.148,476.5118,301.7659,471.8939,305.0331,481.44,302.61" style="stroke:#181818;stroke-width:1;"/><text fill="#000000" font-family="sans-serif" font-size="13" lengthAdjust="spacing" textLength="63.0068" x="314.43" y="262.1669">&#171;include&#187;</text></g><!--link UC2 to UC_auth--><g class="link" data-entity-1="UC2" data-entity-2="UC_auth" data-source-line="12" data-uid="lnk10" id="link_UC2_UC_auth"><path d="M295.91,196.54 C323.89,214.35 373.49,244.71 418.43,266.1 C444.69,278.59 469.7001,288.1886 493.4601,296.5486" fill="none" id="UC2-to-UC_auth" style="stroke:#181818;stroke-width:1;stroke-dasharray:7.0,7.0;"/><polygon fill="#181818" points="499.12,298.54,491.9578,291.7796,494.4034,296.8805,489.3026,299.3261,499.12,298.54" style="stroke:#181818;stroke-width:1;"/><text fill="#000000" font-family="sans-serif" font-size="13" lengthAdjust="spacing" textLength="63.0068" x="419.43" y="262.1669">&#171;include&#187;</text></g><!--link UC3 to UC_auth--><g class="link" data-entity-1="UC3" data-entity-2="UC_auth" data-source-line="13" data-uid="lnk11" id="link_UC3_UC_auth"><path d="M459.38,198.18 C469.11,215.44 485.4,243.33 501.43,266.1 C508.7,276.42 513.7396,282.8452 520.9996,291.4452" fill="none" id="UC3-to-UC_auth" style="stroke:#181818;stroke-width:1;stroke-dasharray:7.0,7.0;"/><polygon fill="#181818" points="524.87,296.03,522.1209,286.5726,521.6447,292.2094,516.0079,291.7331,524.87,296.03" style="stroke:#181818;stroke-width:1;"/><text fill="#000000" font-family="sans-serif" font-size="13" lengthAdjust="spacing" textLength="63.0068" x="502.43" y="262.1669">&#171;include&#187;</text></g><!--link UC4 to UC_auth--><g class="link" data-entity-1="UC4" data-entity-2="UC_auth" data-source-line="14" data-uid="lnk12" id="link_UC4_UC_auth"><path d="M617.78,197.49 C606.18,214.4 587.05,242.21 570.43,266.1 C563.48,276.09 559.0772,282.3762 552.8872,291.1562" fill="none" id="UC4-to-UC_auth" style="stroke:#181818;stroke-width:1;stroke-dasharray:7.0,7.0;"/><polygon fill="#181818" points="549.43,296.06,557.8851,291.0091,552.311,291.9735,551.3467,286.3994,549.43,296.06" style="stroke:#181818;stroke-width:1;"/><text fill="#000000" font-family="sans-serif" font-size="13" lengthAdjust="spacing" textLength="63.0068" x="583.43" y="262.1669">&#171;include&#187;</text></g><!--link UC5 to UC_auth--><g class="link" data-entity-1="UC5" data-entity-2="UC_auth" data-source-line="15" data-uid="lnk13" id="link_UC5_UC_auth"><path d="M782.71,197.46 C752.74,215.22 701.44,244.61 655.43,266.1 C629.56,278.18 605.1634,287.7549 582.0034,296.2449" fill="none" id="UC5-to-UC_auth" style="stroke:#181818;stroke-width:1;stroke-dasharray:7.0,7.0;"/><polygon fill="#181818" points="576.37,298.31,586.1969,298.968,581.0645,296.5891,583.4434,291.4567,576.37,298.31" style="stroke:#181818;stroke-width:1;"/><text fill="#000000" font-family="sans-serif" font-size="13" lengthAdjust="spacing" textLength="63.0068" x="691.43" y="262.1669">&#171;include&#187;</text></g><!--link UC6 to UC_auth--><g class="link" data-entity-1="UC6" data-entity-2="UC_auth" data-source-line="16" data-uid="lnk15" id="link_UC6_UC_auth"><path d="M917.52,203.13 C912.61,208.94 906.78,214.8 900.43,219.1 C810.72,279.83 689.9843,300.1456 612.7143,307.3156" fill="none" id="UC6-to-UC_auth" style="stroke:#181818;stroke-width:1;stroke-dasharray:7.0,7.0;"/><polygon fill="#181818" points="606.74,307.87,616.0711,311.0213,611.7186,307.408,615.3319,303.0556,606.74,307.87" style="stroke:#181818;stroke-width:1;"/><text fill="#000000" font-family="sans-serif" font-size="13" lengthAdjust="spacing" textLength="63.0068" x="839.43" y="262.1669">&#171;include&#187;</text></g><!--link A to UC1--><g class="link" data-entity-1="A" data-entity-2="UC1" data-source-line="19" data-uid="lnk16" id="link_A_UC1"><path d="M481.53,51.21 C429.03,66.36 296.06,105.35 186.43,142.8 C166.8,149.51 150.8152,155.3895 132.8252,162.2595" fill="none" id="A-to-UC1" style="stroke:#181818;stroke-width:1;"/><polygon fill="#181818" points="127.22,164.4,137.0548,164.926,131.891,162.6162,134.2008,157.4524,127.22,164.4" style="stroke:#181818;stroke-width:1;"/></g><!--link A to UC2--><g class="link" data-entity-1="A" data-entity-2="UC2" data-source-line="20" data-uid="lnk17" id="link_A_UC2"><path d="M481.86,57.87 C438.38,83.34 348.4973,135.9875 303.3573,162.4275" fill="none" id="A-to-UC2" style="stroke:#181818;stroke-width:1;"/><polygon fill="#181818" points="298.18,165.46,307.9675,164.3628,302.4944,162.9329,303.9242,157.4598,298.18,165.46" style="stroke:#181818;stroke-width:1;"/></g><!--link A to UC3--><g class="link" data-entity-1="A" data-entity-2="UC3" data-source-line="21" data-uid="lnk18" id="link_A_UC3"><path d="M489.53,81.98 C478.79,108.89 467.0526,138.2868 459.0526,158.3468" fill="none" id="A-to-UC3" style="stroke:#181818;stroke-width:1;"/><polygon fill="#181818" points="456.83,163.92,463.8793,157.042,458.6822,159.2757,456.4485,154.0785,456.83,163.92" style="stroke:#181818;stroke-width:1;"/></g><!--link A to UC4--><g class="link" data-entity-1="A" data-entity-2="UC4" data-source-line="22" data-uid="lnk19" id="link_A_UC4"><path d="M527.18,69.47 C552.63,97.24 589.0164,136.9364 610.2664,160.1264" fill="none" id="A-to-UC4" style="stroke:#181818;stroke-width:1;"/><polygon fill="#181818" points="614.32,164.55,611.1887,155.2122,610.942,160.8636,605.2906,160.6169,614.32,164.55" style="stroke:#181818;stroke-width:1;"/></g><!--link A to UC5--><g class="link" data-entity-1="A" data-entity-2="UC5" data-source-line="23" data-uid="lnk20" id="link_A_UC5"><path d="M527.28,54.82 C580.58,78.54 707.8281,135.181 769.9281,162.811" fill="none" id="A-to-UC5" style="stroke:#181818;stroke-width:1;"/><polygon fill="#181818" points="775.41,165.25,768.8132,157.9368,770.8418,163.2175,765.5611,165.246,775.41,165.25" style="stroke:#181818;stroke-width:1;"/></g><!--link A to UC6--><g class="link" data-entity-1="A" data-entity-2="UC6" data-source-line="24" data-uid="lnk21" id="link_A_UC6"><path d="M527.28,45.55 C591.07,48.99 774.63,65.44 900.43,142.8 C906.96,146.81 908.9818,148.0134 913.8818,153.8234" fill="none" id="A-to-UC6" style="stroke:#181818;stroke-width:1;"/><polygon fill="#181818" points="917.75,158.41,915.0054,148.9513,914.5265,154.5878,908.8899,154.1089,917.75,158.41" style="stroke:#181818;stroke-width:1;"/></g><!--SRC=[VP5D2i8m44RtESNWfgiAziU5IA5quG74jOHqn41CDPCHZwJdwCLiYusBGdOVyzx0V8nKldDGjpTjGHBKWWcL98JLCP7ihsYzlcXqgv6UclCu-pk7_kFG0NjjD4cFxEWdRXRIPN3wjyFPo1Q6rK-K_FhnVC6LaKHXlrZmMzUo2RmKGYJGNEM34GOFscI-KtSMj5M6FHY4k-iK4l5e_2khIHD34rYlgxawx62_drPRhAg1Pb6QHsaHfMMKRYDKY1hIj9g-CASif3oa8gGofEqN]--></g></svg>