<svg xmlns="http://www.w3.org/2000/svg" xmlns:xlink="http://www.w3.org/1999/xlink" contentStyleType="text/css" data-diagram-type="DESCRIPTION" height="309px" preserveAspectRatio="none" style="width:1299px;height:309px;background:#FFFFFF;" version="1.1" viewBox="0 0 1299 309" width="1299px" zoomAndPan="magnify"><defs/><g><!--entity E--><g class="entity" data-entity="E" data-source-line="1" data-uid="ent0002" id="entity_E"><ellipse cx="568.4729" cy="14" fill="#F1F1F1" rx="8" ry="8" style="stroke:#181818;stroke-width:0.5;"/><path d="M568.4729,22 L568.4729,49 M555.4729,30 L581.4729,30 M568.4729,49 L555.4729,64 M568.4729,49 L581.4729,64" fill="none" style="stroke:#181818;stroke-width:0.5;"/><text fill="#000000" font-family="sans-serif" font-size="14" lengthAdjust="spacing" textLength="58.9258" x="539.01" y="78.4951">Etudiant</text></g><g class="entity" data-entity="UC_auth" data-source-line="2" data-uid="ent0003" id="entity_UC_auth"><ellipse cx="612.467" cy="286.7414" fill="#F1F1F1" rx="70.657" ry="16.5314" style="stroke:#181818;stroke-width:0.5;"/><text fill="#000000" font-family="sans-serif" font-size="14" lengthAdjust="spacing" textLength="94.6025" x="562.1657" y="290.489">S'authentifier</text></g><g class="entity" data-entity="UC13" data-source-line="3" data-uid="ent0004" id="entity_UC13"><ellipse cx="82.4685" cy="168.0037" fill="#F1F1F1" rx="76.4685" ry="17.6937" style="stroke:#181818;stroke-width:0.5;"/><text fill="#000000" font-family="sans-serif" font-size="14" lengthAdjust="spacing" textLength="109.7646" x="24.5861" y="171.7513">Consulter cours</text></g><g class="entity" data-entity="UC14" data-source-line="4" data-uid="ent0005" id="entity_UC14"><ellipse cx="287.4676" cy="168.0035" fill="#F1F1F1" rx="93.3676" ry="21.0735" style="stroke:#181818;stroke-width:0.5;"/><text fill="#000000" font-family="sans-serif" font-size="14" lengthAdjust="spacing" textLength="149.3242" x="212.8055" y="170.8502">T&#233;l&#233;charger supports</text></g><g class="entity" data-entity="UC15" data-source-line="5" data-uid="ent0006" id="entity_UC15"><ellipse cx="505.4655" cy="168.0031" fill="#F1F1F1" rx="89.1655" ry="20.2331" style="stroke:#181818;stroke-width:0.5;"/><text fill="#000000" font-family="sans-serif" font-size="14" lengthAdjust="spacing" textLength="139.8496" x="435.5407" y="170.8498">Envoyer soumission</text></g><g class="entity" data-entity="UC_collab" data-source-line="6" data-uid="ent0007" id="entity_UC_collab"><ellipse cx="720.4725" cy="167.9965" fill="#F1F1F1" rx="91.1325" ry="20.6265" style="stroke:#181818;stroke-width:0.5;"/><text fill="#000000" font-family="sans-serif" font-size="14" lengthAdjust="spacing" textLength="144.2998" x="648.3226" y="170.8432">Collaborer sur projet</text></g><g class="entity" data-entity="UC16" data-source-line="7" data-uid="ent0008" id="entity_UC16"><ellipse cx="960.4681" cy="168.0036" fill="#F1F1F1" rx="114.0181" ry="25.2036" style="stroke:#181818;stroke-width:0.5;"/><text fill="#000000" font-family="sans-serif" font-size="14" lengthAdjust="spacing" textLength="194.5439" x="863.1962" y="170.8503">Consulter notes &amp; feedback</text></g><g class="entity" data-entity="UC17" data-source-line="8" data-uid="ent0009" id="entity_UC17"><ellipse cx="1201.4718" cy="168.0044" fill="#F1F1F1" rx="92.4718" ry="20.8944" style="stroke:#181818;stroke-width:0.5;"/><text fill="#000000" font-family="sans-serif" font-size="14" lengthAdjust="spacing" textLength="147.3145" x="1127.8146" y="170.851">Acc&#233;der notifications</text></g><!--link UC13 to UC_auth--><g class="link" data-entity-1="UC13" data-entity-2="UC_auth" data-source-line="11" data-uid="lnk10" id="link_UC13_UC_auth"><path d="M131.71,181.8 C146.13,185.52 161.92,189.55 176.47,193.21 C261.68,214.61 282.59,221.7 368.47,240.21 C432.71,254.05 501.0895,266.5274 550.6595,275.1874" fill="none" id="UC13-to-UC_auth" style="stroke:#181818;stroke-width:1;stroke-dasharray:7.0,7.0;"/><polygon fill="#181818" points="556.57,276.22,548.3927,270.7308,551.6446,275.3595,547.0159,278.6115,556.57,276.22" style="stroke:#181818;stroke-width:1;"/><text fill="#000000" font-family="sans-serif" font-size="13" lengthAdjust="spacing" textLength="63.0068" x="369.47" y="236.2769">&#171;include&#187;</text></g><!--link UC14 to UC_auth--><g class="link" data-entity-1="UC14" data-entity-2="UC_auth" data-source-line="12" data-uid="lnk11" id="link_UC14_UC_auth"><path d="M335.35,186.54 C375.01,201.03 432.85,222.08 483.47,240.21 C513.99,251.14 542.9786,261.373 568.6786,270.393" fill="none" id="UC14-to-UC_auth" style="stroke:#181818;stroke-width:1;stroke-dasharray:7.0,7.0;"/><polygon fill="#181818" points="574.34,272.38,567.1725,265.6252,569.6221,270.7242,564.5232,273.1738,574.34,272.38" style="stroke:#181818;stroke-width:1;"/><text fill="#000000" font-family="sans-serif" font-size="13" lengthAdjust="spacing" textLength="63.0068" x="484.47" y="236.2769">&#171;include&#187;</text></g><!--link UC15 to UC_auth--><g class="link" data-entity-1="UC15" data-entity-2="UC_auth" data-source-line="13" data-uid="lnk12" id="link_UC15_UC_auth"><path d="M523.14,188.28 C544.15,211.2 574.7554,244.5973 594.1454,265.7473" fill="none" id="UC15-to-UC_auth" style="stroke:#181818;stroke-width:1;stroke-dasharray:7.0,7.0;"/><polygon fill="#181818" points="598.2,270.17,595.0665,260.8329,594.8211,266.4844,589.1696,266.2391,598.2,270.17" style="stroke:#181818;stroke-width:1;"/><text fill="#000000" font-family="sans-serif" font-size="13" lengthAdjust="spacing" textLength="63.0068" x="570.47" y="236.2769">&#171;include&#187;</text></g><!--link UC_collab to UC_auth--><g class="link" data-entity-1="UC_collab" data-entity-2="UC_auth" data-source-line="14" data-uid="lnk13" id="link_UC_collab_UC_auth"><path d="M702.39,188.54 C681.13,211.52 650.3542,244.7854 630.8742,265.8454" fill="none" id="UC_collab-to-UC_auth" style="stroke:#181818;stroke-width:1;stroke-dasharray:7.0,7.0;"/><polygon fill="#181818" points="626.8,270.25,635.8477,266.3592,630.1952,266.5795,629.9749,260.9269,626.8,270.25" style="stroke:#181818;stroke-width:1;"/><text fill="#000000" font-family="sans-serif" font-size="13" lengthAdjust="spacing" textLength="63.0068" x="671.47" y="236.2769">&#171;include&#187;</text></g><!--link UC16 to UC_auth--><g class="link" data-entity-1="UC16" data-entity-2="UC_auth" data-source-line="15" data-uid="lnk14" id="link_UC16_UC_auth"><path d="M899.05,189.6 C827.64,213.56 717.5684,250.4816 657.3584,270.6816" fill="none" id="UC16-to-UC_auth" style="stroke:#181818;stroke-width:1;stroke-dasharray:7.0,7.0;"/><polygon fill="#181818" points="651.67,272.59,661.4749,273.5196,656.4103,270.9997,658.9303,265.9351,651.67,272.59" style="stroke:#181818;stroke-width:1;"/><text fill="#000000" font-family="sans-serif" font-size="13" lengthAdjust="spacing" textLength="63.0068" x="798.47" y="236.2769">&#171;include&#187;</text></g><!--link UC17 to UC_auth--><g class="link" data-entity-1="UC17" data-entity-2="UC_auth" data-source-line="16" data-uid="lnk15" id="link_UC17_UC_auth"><path d="M1137.23,183.38 C1122.53,186.64 1106.96,190.06 1092.47,193.21 C993.91,214.58 969.48,221 870.47,240.21 C801.15,253.66 726.9362,266.5406 674.6062,275.3806" fill="none" id="UC17-to-UC_auth" style="stroke:#181818;stroke-width:1;stroke-dasharray:7.0,7.0;"/><polygon fill="#181818" points="668.69,276.38,678.2305,278.825,673.6201,275.5472,676.898,270.9368,668.69,276.38" style="stroke:#181818;stroke-width:1;"/><text fill="#000000" font-family="sans-serif" font-size="13" lengthAdjust="spacing" textLength="63.0068" x="952.47" y="236.2769">&#171;include&#187;</text></g><!--link E to UC13--><g class="link" data-entity-1="E" data-entity-2="UC13" data-source-line="18" data-uid="lnk16" id="link_E_UC13"><path d="M538.95,51.97 C473.6,68.19 311.79,108.44 176.47,142.8 C162.1,146.45 152.3104,148.9537 138.0204,152.6337" fill="none" id="E-to-UC13" style="stroke:#181818;stroke-width:1;"/><polygon fill="#181818" points="132.21,154.13,141.9232,155.7591,137.052,152.8831,139.9281,148.0119,132.21,154.13" style="stroke:#181818;stroke-width:1;"/></g><!--link E to UC14--><g class="link" data-entity-1="E" data-entity-2="UC14" data-source-line="19" data-uid="lnk17" id="link_E_UC14"><path d="M538.66,57.63 C488.38,79.52 392.0811,121.4547 334.7111,146.4347" fill="none" id="E-to-UC14" style="stroke:#181818;stroke-width:1;"/><polygon fill="#181818" points="329.21,148.83,339.0586,148.9045,333.7943,146.8339,335.8648,141.5696,329.21,148.83" style="stroke:#181818;stroke-width:1;"/></g><!--link E to UC15--><g class="link" data-entity-1="E" data-entity-2="UC15" data-source-line="20" data-uid="lnk18" id="link_E_UC15"><path d="M549.22,82.03 C538.08,103.67 527.2587,124.6966 518.2087,142.2566" fill="none" id="E-to-UC15" style="stroke:#181818;stroke-width:1;"/><polygon fill="#181818" points="515.46,147.59,523.1386,141.4224,517.7506,143.1455,516.0275,137.7575,515.46,147.59" style="stroke:#181818;stroke-width:1;"/></g><!--link E to UC_collab--><g class="link" data-entity-1="E" data-entity-2="UC_collab" data-source-line="21" data-uid="lnk19" id="link_E_UC_collab"><path d="M598.14,68.53 C626.99,91.76 665.586,122.8279 692.186,144.2379" fill="none" id="E-to-UC_collab" style="stroke:#181818;stroke-width:1;"/><polygon fill="#181818" points="696.86,148,692.357,139.2408,692.965,144.8649,687.3409,145.4729,696.86,148" style="stroke:#181818;stroke-width:1;"/></g><!--link E to UC16--><g class="link" data-entity-1="E" data-entity-2="UC16" data-source-line="22" data-uid="lnk20" id="link_E_UC16"><path d="M598.25,53.95 C661.41,73.66 804.2925,118.2623 890.2525,145.0923" fill="none" id="E-to-UC16" style="stroke:#181818;stroke-width:1;"/><polygon fill="#181818" points="895.98,146.88,888.5805,140.3802,891.2071,145.3903,886.197,148.0168,895.98,146.88" style="stroke:#181818;stroke-width:1;"/></g><!--link E to UC17--><g class="link" data-entity-1="E" data-entity-2="UC17" data-source-line="23" data-uid="lnk21" id="link_E_UC17"><path d="M598.37,49.89 C678.56,64.02 905,104.44 1092.47,142.8 C1107.19,145.81 1117.1207,147.9284 1132.0007,151.2084" fill="none" id="E-to-UC17" style="stroke:#181818;stroke-width:1;"/><polygon fill="#181818" points="1137.86,152.5,1129.932,146.6564,1132.9772,151.4237,1128.2099,154.4689,1137.86,152.5" style="stroke:#181818;stroke-width:1;"/></g><!--SRC=[VP5DQiCm48NtFiMGHRrAeCG_K8AX69-WxReeygHMgqYkD2hqI3w7BrRBZgKiYdSFlK-ZDq-CapRGa6i5KmJCGfCuYvnPXDrBoXnrg4XS19gTTz_gTtyMcLehwoIX0QwTiJVeyHY9rt6Guy0xPZucohg-ruO2c4MmKJ_wroFQNOMrGgiLok_VavATjPb76UYD_aHQe_7P_2-SqeGM7k22s9uP_red5n5-vdmSseMT5kQCfWGXPvaaATGT-tO84mzjwaX8OMSAXEBI4SYxmfRxYUy23eTgRGwUu7IQyHQhojlPjfrlshULjqSKstQvOISDxFVLygD1Pb7cGQxb1wk8ilm3]--></g></svg>